# xmcd
#
# Track frame offsets:
#	150
#	11014
#	26619
#	37820
#	55038
#	71551
#	90985
#	112062
#	129767
#	148052
#	168320
#	191816
#	217021
#	236608
#	260971
#	280851
#	297231
#	311194
#	323017
#
# Disc length: 4596 seconds
#
# Revision: 0
# Processed by: cddbd v1.5.1PL0 Copyright (c) Steve Scherf et al.
# Submitted via: audiograbber 1.83.01
#
DISCID=1a11f213
DTITLE=Gemischt - Eigenmix 63
DYEAR=1900
DGENRE=
TTITLE0=Jean Michelle Jarre - Equinoxe, Pt
TTITLE1=Jean Michelle Jarre - Orient Express
TTITLE2=Jean Michelle Jarre - Popcorn
TTITLE3=Jean Michelle Jarre - Wonderful Land 1 (2)
TTITLE4=Jean Michelle Jarre and Apollo 440 - Rendes Vouz 98
TTITLE5=Peter Maffay - Angela
TTITLE6=Peter Maffay - Auf Sand Gebaut
TTITLE7=Peter Maffay - Du Und Ich Für Immer
TTITLE8=Peter Maffay - Mein Kind
TTITLE9=Peter Maffay - Lange Schatten.wav
TTITLE10=Peter Maffay - Weit Von Mir
TTITLE11=Queen - Heaven For Everyone
TTITLE12=Queen - Too Much Love Will Kill You
TTITLE13=Queen - You Don´t Fool Me
TTITLE14=Steve Miller Band - Jet Airliner
TTITLE15=Steve Miller Band - The Joker
TTITLE16=Steve Miller Band - Rock´n Me
TTITLE17=Joan Baez - Blowin In The Wind (Bso Forrest Gump).wav
TTITLE18=Wishfül Thinking	 - Hiroshima
EXTD=
EXTT0=
EXTT1=
EXTT2=
EXTT3=
EXTT4=
EXTT5=
EXTT6=
EXTT7=
EXTT8=
EXTT9=
EXTT10=
EXTT11=
EXTT12=
EXTT13=
EXTT14=
EXTT15=
EXTT16=
EXTT17=
EXTT18=
PLAYORDER=
